<svg xmlns="http://www.w3.org/2000/svg" width="896" height="130" viewBox="0 0 896 130" role="img" aria-label="JevCode — Decisions, not strings">
<title>JevCode — Decisions, not strings</title>
<rect x="52" y="10" width="22" height="22" fill="#be185d"/>
<rect x="85" y="10" width="77" height="22" fill="#be185d"/>
<rect x="173" y="10" width="22" height="22" fill="#be185d"/>
<rect x="239" y="10" width="22" height="22" fill="#be185d"/>
<rect x="283" y="10" width="66" height="22" fill="#1e1e1e" fill-opacity="0.45"/>
<rect x="371" y="10" width="66" height="22" fill="#1e1e1e" fill-opacity="0.45"/>
<rect x="459" y="10" width="66" height="22" fill="#1e1e1e" fill-opacity="0.45"/>
<rect x="547" y="10" width="77" height="22" fill="#1e1e1e" fill-opacity="0.45"/>
<rect x="52" y="32" width="22" height="22" fill="#be185d"/>
<rect x="85" y="32" width="22" height="22" fill="#be185d"/>
<rect x="173" y="32" width="22" height="22" fill="#be185d"/>
<rect x="239" y="32" width="22" height="22" fill="#be185d"/>
<rect x="272" y="32" width="22" height="22" fill="#1e1e1e" fill-opacity="0.45"/>
<rect x="360" y="32" width="22" height="22" fill="#1e1e1e" fill-opacity="0.45"/>
<rect x="426" y="32" width="22" height="22" fill="#1e1e1e" fill-opacity="0.45"/>
<rect x="459" y="32" width="22" height="22" fill="#1e1e1e" fill-opacity="0.45"/>
<rect x="514" y="32" width="22" height="22" fill="#1e1e1e" fill-opacity="0.45"/>
<rect x="547" y="32" width="22" height="22" fill="#1e1e1e" fill-opacity="0.45"/>
<rect x="52" y="54" width="22" height="22" fill="#be185d"/>
<rect x="85" y="54" width="55" height="22" fill="#be185d"/>
<rect x="173" y="54" width="22" height="22" fill="#be185d"/>
<rect x="239" y="54" width="22" height="22" fill="#be185d"/>
<rect x="272" y="54" width="22" height="22" fill="#1e1e1e" fill-opacity="0.45"/>
<rect x="360" y="54" width="22" height="22" fill="#1e1e1e" fill-opacity="0.45"/>
<rect x="426" y="54" width="22" height="22" fill="#1e1e1e" fill-opacity="0.45"/>
<rect x="459" y="54" width="22" height="22" fill="#1e1e1e" fill-opacity="0.45"/>
<rect x="514" y="54" width="22" height="22" fill="#1e1e1e" fill-opacity="0.45"/>
<rect x="547" y="54" width="55" height="22" fill="#1e1e1e" fill-opacity="0.45"/>
<rect x="8" y="76" width="22" height="22" fill="#be185d"/>
<rect x="52" y="76" width="22" height="22" fill="#be185d"/>
<rect x="85" y="76" width="22" height="22" fill="#be185d"/>
<rect x="184" y="76" width="22" height="22" fill="#be185d"/>
<rect x="228" y="76" width="22" height="22" fill="#be185d"/>
<rect x="272" y="76" width="22" height="22" fill="#1e1e1e" fill-opacity="0.45"/>
<rect x="360" y="76" width="22" height="22" fill="#1e1e1e" fill-opacity="0.45"/>
<rect x="426" y="76" width="22" height="22" fill="#1e1e1e" fill-opacity="0.45"/>
<rect x="459" y="76" width="22" height="22" fill="#1e1e1e" fill-opacity="0.45"/>
<rect x="514" y="76" width="22" height="22" fill="#1e1e1e" fill-opacity="0.45"/>
<rect x="547" y="76" width="22" height="22" fill="#1e1e1e" fill-opacity="0.45"/>
<rect x="19" y="98" width="44" height="22" fill="#be185d"/>
<rect x="85" y="98" width="77" height="22" fill="#be185d"/>
<rect x="195" y="98" width="44" height="22" fill="#be185d"/>
<rect x="283" y="98" width="66" height="22" fill="#1e1e1e" fill-opacity="0.45"/>
<rect x="371" y="98" width="66" height="22" fill="#1e1e1e" fill-opacity="0.45"/>
<rect x="459" y="98" width="66" height="22" fill="#1e1e1e" fill-opacity="0.45"/>
<rect x="547" y="98" width="77" height="22" fill="#1e1e1e" fill-opacity="0.45"/>
<text x="646" y="25.84" font-family="ui-monospace,SFMono-Regular,Menlo,Consolas,'DejaVu Sans Mono',monospace" font-size="13.64" textLength="242" lengthAdjust="spacingAndGlyphs" fill="#1e1e1e" fill-opacity="0.45">Decisions, not strings</text>
<text x="646" y="113.84" font-family="ui-monospace,SFMono-Regular,Menlo,Consolas,'DejaVu Sans Mono',monospace" font-size="13.64" textLength="77" lengthAdjust="spacingAndGlyphs"><tspan fill="#831843">◆</tspan><tspan fill="#1e1e1e" fill-opacity="0.45"> 0.6.0</tspan></text>
</svg>
